<?xml version="1.0" encoding="UTF-8" standalone="no"?>
<!DOCTYPE svg PUBLIC "-//W3C//DTD SVG 1.1//EN"
 "http://www.w3.org/Graphics/SVG/1.1/DTD/svg11.dtd">
<!-- Generated by graphviz version 2.47.1 (20210417.1919)
 -->
<!-- Pages: 1 -->
<svg width="322pt" height="318pt"
 viewBox="0.00 0.00 322.50 317.90" xmlns="http://www.w3.org/2000/svg" xmlns:xlink="http://www.w3.org/1999/xlink">
<g id="graph0" class="graph" transform="scale(1 1) rotate(0) translate(4 313.9)">
<polygon fill="white" stroke="transparent" points="-4,4 -4,-313.9 318.5,-313.9 318.5,4 -4,4"/>
<!-- 0 -->
<g id="node1" class="node">
<title>0</title>
<ellipse fill="none" stroke="black" cx="188" cy="-291.9" rx="27" ry="18"/>
<text text-anchor="middle" x="188" y="-288.2" font-family="Times,serif" font-size="14.00">0</text>
</g>
<!-- 1 -->
<g id="node2" class="node">
<title>1</title>
<ellipse fill="none" stroke="black" cx="27" cy="-239.59" rx="27" ry="18"/>
<text text-anchor="middle" x="27" y="-235.89" font-family="Times,serif" font-size="14.00">1</text>
</g>
<!-- 0&#45;&#45;1 -->
<g id="edge1" class="edge">
<title>0&#45;&#45;1</title>
<path fill="none" stroke="black" d="M163.54,-283.96C133.2,-274.1 81.75,-257.38 51.42,-247.53"/>
</g>
<!-- 4 -->
<g id="node5" class="node">
<title>4</title>
<ellipse fill="none" stroke="black" cx="287.5" cy="-154.95" rx="27" ry="18"/>
<text text-anchor="middle" x="287.5" y="-151.25" font-family="Times,serif" font-size="14.00">4</text>
</g>
<!-- 0&#45;&#45;4 -->
<g id="edge2" class="edge">
<title>0&#45;&#45;4</title>
<path fill="none" stroke="black" d="M199.8,-275.66C218.95,-249.3 256.57,-197.52 275.71,-171.18"/>
</g>
<!-- 5 -->
<g id="node6" class="node">
<title>5</title>
<ellipse fill="none" stroke="black" cx="133.21" cy="-186.61" rx="27" ry="18"/>
<text text-anchor="middle" x="133.21" y="-182.91" font-family="Times,serif" font-size="14.00">5</text>
</g>
<!-- 0&#45;&#45;5 -->
<g id="edge3" class="edge">
<title>0&#45;&#45;5</title>
<path fill="none" stroke="black" d="M178.95,-274.52C168.74,-254.89 152.23,-223.16 142.09,-203.67"/>
</g>
<!-- 9 -->
<g id="node10" class="node">
<title>9</title>
<ellipse fill="none" stroke="black" cx="198.66" cy="-191.52" rx="27" ry="18"/>
<text text-anchor="middle" x="198.66" y="-187.82" font-family="Times,serif" font-size="14.00">9</text>
</g>
<!-- 0&#45;&#45;9 -->
<g id="edge4" class="edge">
<title>0&#45;&#45;9</title>
<path fill="none" stroke="black" d="M189.95,-273.49C191.89,-255.26 194.83,-227.54 196.75,-209.47"/>
</g>
<!-- 2 -->
<g id="node3" class="node">
<title>2</title>
<ellipse fill="none" stroke="black" cx="27" cy="-70.31" rx="27" ry="18"/>
<text text-anchor="middle" x="27" y="-66.61" font-family="Times,serif" font-size="14.00">2</text>
</g>
<!-- 1&#45;&#45;2 -->
<g id="edge5" class="edge">
<title>1&#45;&#45;2</title>
<path fill="none" stroke="black" d="M27,-221.48C27,-188.98 27,-121.14 27,-88.55"/>
</g>
<!-- 1&#45;&#45;5 -->
<g id="edge6" class="edge">
<title>1&#45;&#45;5</title>
<path fill="none" stroke="black" d="M48.75,-228.74C67.08,-219.6 93.17,-206.58 111.49,-197.44"/>
</g>
<!-- 6 -->
<g id="node7" class="node">
<title>6</title>
<ellipse fill="none" stroke="black" cx="77.38" cy="-152.11" rx="27" ry="18"/>
<text text-anchor="middle" x="77.38" y="-148.41" font-family="Times,serif" font-size="14.00">6</text>
</g>
<!-- 1&#45;&#45;6 -->
<g id="edge7" class="edge">
<title>1&#45;&#45;6</title>
<path fill="none" stroke="black" d="M36.71,-222.73C45.63,-207.23 58.78,-184.4 67.7,-168.93"/>
</g>
<!-- 3 -->
<g id="node4" class="node">
<title>3</title>
<ellipse fill="none" stroke="black" cx="188" cy="-18" rx="27" ry="18"/>
<text text-anchor="middle" x="188" y="-14.3" font-family="Times,serif" font-size="14.00">3</text>
</g>
<!-- 2&#45;&#45;3 -->
<g id="edge8" class="edge">
<title>2&#45;&#45;3</title>
<path fill="none" stroke="black" d="M51.45,-62.37C81.8,-52.51 133.25,-35.79 163.58,-25.93"/>
</g>
<!-- 2&#45;&#45;6 -->
<g id="edge9" class="edge">
<title>2&#45;&#45;6</title>
<path fill="none" stroke="black" d="M37.44,-87.26C46.08,-101.3 58.31,-121.15 66.95,-135.18"/>
</g>
<!-- 7 -->
<g id="node8" class="node">
<title>7</title>
<ellipse fill="none" stroke="black" cx="122.3" cy="-111.93" rx="27" ry="18"/>
<text text-anchor="middle" x="122.3" y="-108.23" font-family="Times,serif" font-size="14.00">7</text>
</g>
<!-- 2&#45;&#45;7 -->
<g id="edge10" class="edge">
<title>2&#45;&#45;7</title>
<path fill="none" stroke="black" d="M50.07,-80.38C65.05,-86.93 84.5,-95.42 99.45,-101.94"/>
</g>
<!-- 3&#45;&#45;4 -->
<g id="edge11" class="edge">
<title>3&#45;&#45;4</title>
<path fill="none" stroke="black" d="M199.8,-34.25C218.95,-60.61 256.57,-112.38 275.71,-138.73"/>
</g>
<!-- 3&#45;&#45;7 -->
<g id="edge12" class="edge">
<title>3&#45;&#45;7</title>
<path fill="none" stroke="black" d="M176.55,-34.36C164.57,-51.49 145.85,-78.26 133.84,-95.44"/>
</g>
<!-- 8 -->
<g id="node9" class="node">
<title>8</title>
<ellipse fill="none" stroke="black" cx="185.93" cy="-132.6" rx="27" ry="18"/>
<text text-anchor="middle" x="185.93" y="-128.9" font-family="Times,serif" font-size="14.00">8</text>
</g>
<!-- 3&#45;&#45;8 -->
<g id="edge13" class="edge">
<title>3&#45;&#45;8</title>
<path fill="none" stroke="black" d="M187.67,-36.16C187.28,-57.62 186.65,-93.1 186.26,-114.53"/>
</g>
<!-- 4&#45;&#45;8 -->
<g id="edge14" class="edge">
<title>4&#45;&#45;8</title>
<path fill="none" stroke="black" d="M261.61,-149.25C246.33,-145.89 227.05,-141.65 211.78,-138.29"/>
</g>
<!-- 4&#45;&#45;9 -->
<g id="edge15" class="edge">
<title>4&#45;&#45;9</title>
<path fill="none" stroke="black" d="M264.16,-164.56C251.1,-169.93 234.88,-176.61 221.85,-181.97"/>
</g>
<!-- 5&#45;&#45;6 -->
<g id="edge16" class="edge">
<title>5&#45;&#45;6</title>
<path fill="none" stroke="black" d="M113.37,-174.35C108.23,-171.17 102.69,-167.75 97.53,-164.56"/>
</g>
<!-- 5&#45;&#45;7 -->
<g id="edge17" class="edge">
<title>5&#45;&#45;7</title>
<path fill="none" stroke="black" d="M130.57,-168.53C128.87,-156.87 126.66,-141.77 124.96,-130.1"/>
</g>
<!-- 5&#45;&#45;8 -->
<g id="edge18" class="edge">
<title>5&#45;&#45;8</title>
<path fill="none" stroke="black" d="M148.18,-171.28C155.36,-163.92 163.95,-155.12 171.11,-147.78"/>
</g>
<!-- 5&#45;&#45;9 -->
<g id="edge19" class="edge">
<title>5&#45;&#45;9</title>
<path fill="none" stroke="black" d="M160.21,-188.63C164.01,-188.92 167.92,-189.21 171.72,-189.5"/>
</g>
<!-- 6&#45;&#45;7 -->
<g id="edge20" class="edge">
<title>6&#45;&#45;7</title>
<path fill="none" stroke="black" d="M93.6,-137.6C97.62,-134.01 101.93,-130.15 105.96,-126.55"/>
</g>
<!-- 7&#45;&#45;8 -->
<g id="edge21" class="edge">
<title>7&#45;&#45;8</title>
<path fill="none" stroke="black" d="M146.72,-119.86C151.49,-121.41 156.49,-123.03 161.27,-124.58"/>
</g>
<!-- 8&#45;&#45;9 -->
<g id="edge22" class="edge">
<title>8&#45;&#45;9</title>
<path fill="none" stroke="black" d="M189.82,-150.6C191.4,-157.91 193.22,-166.33 194.8,-173.63"/>
</g>
</g>
</svg>
