<?xml version="1.0" encoding="UTF-8" standalone="no"?>
<!DOCTYPE svg PUBLIC "-//W3C//DTD SVG 1.1//EN"
 "http://www.w3.org/Graphics/SVG/1.1/DTD/svg11.dtd">
<!-- Generated by graphviz version 2.47.1 (20210417.1919)
 -->
<!-- Pages: 1 -->
<svg width="293pt" height="476pt"
 viewBox="0.00 0.00 293.00 476.00" xmlns="http://www.w3.org/2000/svg" xmlns:xlink="http://www.w3.org/1999/xlink">
<g id="graph0" class="graph" transform="scale(1 1) rotate(0) translate(4 472)">
<polygon fill="white" stroke="transparent" points="-4,4 -4,-472 289,-472 289,4 -4,4"/>
<!-- 0 -->
<g id="node1" class="node">
<title>0</title>
<ellipse fill="none" stroke="black" cx="192" cy="-450" rx="27" ry="18"/>
<text text-anchor="middle" x="192" y="-446.3" font-family="Times,serif" font-size="14.00">0</text>
</g>
<!-- 1 -->
<g id="node2" class="node">
<title>1</title>
<ellipse fill="none" stroke="black" cx="123" cy="-378" rx="27" ry="18"/>
<text text-anchor="middle" x="123" y="-374.3" font-family="Times,serif" font-size="14.00">1</text>
</g>
<!-- 0&#45;&#45;1 -->
<g id="edge1" class="edge">
<title>0&#45;&#45;1</title>
<path fill="none" stroke="black" d="M177.7,-434.5C165.86,-422.48 149.12,-405.49 137.28,-393.49"/>
</g>
<!-- 4 -->
<g id="node5" class="node">
<title>4</title>
<ellipse fill="none" stroke="black" cx="211" cy="-162" rx="27" ry="18"/>
<text text-anchor="middle" x="211" y="-158.3" font-family="Times,serif" font-size="14.00">4</text>
</g>
<!-- 0&#45;&#45;4 -->
<g id="edge2" class="edge">
<title>0&#45;&#45;4</title>
<path fill="none" stroke="black" d="M198.13,-432.33C211.42,-394.08 240.69,-297.08 228,-216 226.06,-203.59 221.7,-190.12 217.89,-179.86"/>
</g>
<!-- 5 -->
<g id="node6" class="node">
<title>5</title>
<ellipse fill="none" stroke="black" cx="27" cy="-306" rx="27" ry="18"/>
<text text-anchor="middle" x="27" y="-302.3" font-family="Times,serif" font-size="14.00">5</text>
</g>
<!-- 0&#45;&#45;5 -->
<g id="edge3" class="edge">
<title>0&#45;&#45;5</title>
<path fill="none" stroke="black" d="M168.26,-441.03C145.53,-432.52 111.2,-417.34 87,-396 63.24,-375.05 44.58,-342.68 34.72,-323.29"/>
</g>
<!-- 9 -->
<g id="node10" class="node">
<title>9</title>
<ellipse fill="none" stroke="black" cx="183" cy="-18" rx="27" ry="18"/>
<text text-anchor="middle" x="183" y="-14.3" font-family="Times,serif" font-size="14.00">9</text>
</g>
<!-- 0&#45;&#45;9 -->
<g id="edge4" class="edge">
<title>0&#45;&#45;9</title>
<path fill="none" stroke="black" d="M208.63,-435.62C235.38,-412.48 285,-362.11 285,-307 285,-307 285,-307 285,-161 285,-103.94 229.99,-54.1 200.77,-31.66"/>
</g>
<!-- 2 -->
<g id="node3" class="node">
<title>2</title>
<ellipse fill="none" stroke="black" cx="137" cy="-306" rx="27" ry="18"/>
<text text-anchor="middle" x="137" y="-302.3" font-family="Times,serif" font-size="14.00">2</text>
</g>
<!-- 1&#45;&#45;2 -->
<g id="edge5" class="edge">
<title>1&#45;&#45;2</title>
<path fill="none" stroke="black" d="M126.39,-360.05C128.56,-349.21 131.36,-335.18 133.54,-324.28"/>
</g>
<!-- 1&#45;&#45;5 -->
<g id="edge6" class="edge">
<title>1&#45;&#45;5</title>
<path fill="none" stroke="black" d="M105.39,-364.16C88.07,-351.53 61.78,-332.36 44.5,-319.76"/>
</g>
<!-- 6 -->
<g id="node7" class="node">
<title>6</title>
<ellipse fill="none" stroke="black" cx="82" cy="-234" rx="27" ry="18"/>
<text text-anchor="middle" x="82" y="-230.3" font-family="Times,serif" font-size="14.00">6</text>
</g>
<!-- 1&#45;&#45;6 -->
<g id="edge7" class="edge">
<title>1&#45;&#45;6</title>
<path fill="none" stroke="black" d="M115.27,-360.58C110.64,-350.25 104.91,-336.56 101,-324 93.34,-299.41 87.73,-270.05 84.67,-251.97"/>
</g>
<!-- 3 -->
<g id="node4" class="node">
<title>3</title>
<ellipse fill="none" stroke="black" cx="192" cy="-234" rx="27" ry="18"/>
<text text-anchor="middle" x="192" y="-230.3" font-family="Times,serif" font-size="14.00">3</text>
</g>
<!-- 2&#45;&#45;3 -->
<g id="edge8" class="edge">
<title>2&#45;&#45;3</title>
<path fill="none" stroke="black" d="M148.93,-289.81C158.16,-278.07 170.87,-261.89 180.09,-250.16"/>
</g>
<!-- 2&#45;&#45;6 -->
<g id="edge9" class="edge">
<title>2&#45;&#45;6</title>
<path fill="none" stroke="black" d="M125.07,-289.81C115.84,-278.07 103.13,-261.89 93.91,-250.16"/>
</g>
<!-- 7 -->
<g id="node8" class="node">
<title>7</title>
<ellipse fill="none" stroke="black" cx="101" cy="-162" rx="27" ry="18"/>
<text text-anchor="middle" x="101" y="-158.3" font-family="Times,serif" font-size="14.00">7</text>
</g>
<!-- 2&#45;&#45;7 -->
<g id="edge10" class="edge">
<title>2&#45;&#45;7</title>
<path fill="none" stroke="black" d="M133.86,-287.82C130.45,-269.8 124.59,-240.73 118,-216 114.72,-203.67 110.3,-189.97 106.79,-179.58"/>
</g>
<!-- 3&#45;&#45;4 -->
<g id="edge11" class="edge">
<title>3&#45;&#45;4</title>
<path fill="none" stroke="black" d="M196.6,-216.05C199.59,-205.05 203.46,-190.76 206.44,-179.79"/>
</g>
<!-- 3&#45;&#45;7 -->
<g id="edge12" class="edge">
<title>3&#45;&#45;7</title>
<path fill="none" stroke="black" d="M174.88,-219.83C158.61,-207.32 134.28,-188.6 118.04,-176.11"/>
</g>
<!-- 8 -->
<g id="node9" class="node">
<title>8</title>
<ellipse fill="none" stroke="black" cx="156" cy="-90" rx="27" ry="18"/>
<text text-anchor="middle" x="156" y="-86.3" font-family="Times,serif" font-size="14.00">8</text>
</g>
<!-- 3&#45;&#45;8 -->
<g id="edge13" class="edge">
<title>3&#45;&#45;8</title>
<path fill="none" stroke="black" d="M186.21,-216.42C182.7,-206.03 178.28,-192.33 175,-180 168.41,-155.27 162.55,-126.2 159.14,-108.18"/>
</g>
<!-- 4&#45;&#45;8 -->
<g id="edge14" class="edge">
<title>4&#45;&#45;8</title>
<path fill="none" stroke="black" d="M199.07,-145.81C189.84,-134.07 177.13,-117.89 167.91,-106.16"/>
</g>
<!-- 4&#45;&#45;9 -->
<g id="edge15" class="edge">
<title>4&#45;&#45;9</title>
<path fill="none" stroke="black" d="M207.62,-143.87C202.24,-116.58 191.78,-63.52 186.39,-36.19"/>
</g>
<!-- 5&#45;&#45;6 -->
<g id="edge16" class="edge">
<title>5&#45;&#45;6</title>
<path fill="none" stroke="black" d="M38.93,-289.81C48.16,-278.07 60.87,-261.89 70.09,-250.16"/>
</g>
<!-- 5&#45;&#45;7 -->
<g id="edge17" class="edge">
<title>5&#45;&#45;7</title>
<path fill="none" stroke="black" d="M27.7,-287.9C29.11,-269.17 33.34,-238.79 46,-216 55.08,-199.66 70.84,-185.24 83.17,-175.58"/>
</g>
<!-- 5&#45;&#45;8 -->
<g id="edge18" class="edge">
<title>5&#45;&#45;8</title>
<path fill="none" stroke="black" d="M25.5,-287.98C24.38,-269.85 23.93,-240.46 30,-216 38.56,-181.47 40.8,-170.08 65,-144 84.03,-123.49 112.81,-108.57 132.9,-99.88"/>
</g>
<!-- 5&#45;&#45;9 -->
<g id="edge19" class="edge">
<title>5&#45;&#45;9</title>
<path fill="none" stroke="black" d="M23.37,-288.05C17.68,-257.05 9.92,-190.13 37,-144 68.25,-90.76 130.58,-49.19 162.75,-30.23"/>
</g>
<!-- 6&#45;&#45;7 -->
<g id="edge20" class="edge">
<title>6&#45;&#45;7</title>
<path fill="none" stroke="black" d="M86.6,-216.05C89.59,-205.05 93.46,-190.76 96.44,-179.79"/>
</g>
<!-- 7&#45;&#45;8 -->
<g id="edge21" class="edge">
<title>7&#45;&#45;8</title>
<path fill="none" stroke="black" d="M112.93,-145.81C122.16,-134.07 134.87,-117.89 144.09,-106.16"/>
</g>
<!-- 8&#45;&#45;9 -->
<g id="edge22" class="edge">
<title>8&#45;&#45;9</title>
<path fill="none" stroke="black" d="M162.4,-72.41C166.64,-61.41 172.19,-47.03 176.46,-35.96"/>
</g>
</g>
</svg>
